<svg width="9" height="9" viewBox="0 0 9 9" fill="none" xmlns="http://www.w3.org/2000/svg">
<g clip-path="url(#clip0_250_124)">
<path d="M5.53441 2.86964C6.08483 2.86964 6.6127 3.0964 7.00191 3.50005C7.39112 3.90369 7.60977 4.45115 7.60977 5.02199V7.53307H6.22619V5.02199C6.22619 4.83171 6.15331 4.64923 6.02357 4.51468C5.89384 4.38013 5.71788 4.30454 5.53441 4.30454C5.35093 4.30454 5.17497 4.38013 5.04524 4.51468C4.9155 4.64923 4.84262 4.83171 4.84262 5.02199V7.53307H3.45904V5.02199C3.45904 4.45115 3.6777 3.90369 4.0669 3.50005C4.45611 3.0964 4.98399 2.86964 5.53441 2.86964Z" stroke="#1E1E1E" stroke-width="0.807132" stroke-linecap="round" stroke-linejoin="round"/>
<path d="M2.07547 3.22836H0.691895V7.53307H2.07547V3.22836Z" stroke="#1E1E1E" stroke-width="0.807132" stroke-linecap="round" stroke-linejoin="round"/>
<path d="M1.38368 2.15219C1.76575 2.15219 2.07547 1.83097 2.07547 1.43474C2.07547 1.0385 1.76575 0.717285 1.38368 0.717285C1.00162 0.717285 0.691895 1.0385 0.691895 1.43474C0.691895 1.83097 1.00162 2.15219 1.38368 2.15219Z" stroke="#1E1E1E" stroke-width="0.807132" stroke-linecap="round" stroke-linejoin="round"/>
</g>
<defs>
<clipPath id="clip0_250_124">
<rect width="8.30145" height="8.60941" fill="white"/>
</clipPath>
</defs>
</svg>
