<svg width="393" height="510" viewBox="0 0 393 510" fill="none" xmlns="http://www.w3.org/2000/svg">
<line x1="196.505" y1="129.005" x2="196.505" y2="441.005" stroke="#9C9034"/>
<path d="M40.5 285C40.5 244.692 54.3769 204.884 85.1307 174.131C115.884 143.377 155.692 128.5 196 128.5M196.5 441C236.808 441 277.116 427.623 307.869 396.869C338.623 366.116 354 325.808 354 285.5C354 257.612 346.222 229.224 331.5 204.5" stroke="#9C9034" stroke-width="3"/>
<path d="M85.4842 173.484C116.14 142.828 156.319 127.5 196.5 127.5C236.681 127.5 276.86 142.828 307.516 173.484C338.172 204.14 353.5 244.319 353.5 284.5C353.5 324.681 338.172 364.86 307.516 395.516C276.86 426.172 236.681 441.5 196.5 441.5C156.319 441.5 116.14 426.172 85.4842 395.516C54.828 364.86 39.5002 324.681 39.5002 284.5C39.5002 244.319 54.828 204.14 85.4842 173.484Z" stroke="#9C9034"/>
<g filter="url(#filter0_f_6_79)">
<rect x="196" y="129.414" width="220.739" height="220.032" transform="rotate(45 196 129.414)" stroke="#DAB330" stroke-width="2"/>
</g>
<path d="M196.48 205C205.647 208.167 225.78 221.3 232.98 248.5C235.48 265 236.98 279.5 219.98 308.5C202.98 337.5 196.48 367.5 196.48 371.5H196.5C196.5 367.5 190 337.5 173 308.5C156 279.5 157.5 265 160 248.5C167.2 221.3 187.333 208.167 196.5 205H196.48Z" stroke="#9C9034" stroke-width="4"/>
<path d="M196.5 205V368" stroke="#9C9034" stroke-width="2"/>
<path d="M224.5 273C223.833 270.5 220.1 264.5 210.5 260.5C200.9 256.5 197.167 246.5 196.5 242C195.833 246.5 192.1 256.5 182.5 260.5C172.9 264.5 169.167 270.5 168.5 273" stroke="#9C9034" stroke-width="2"/>
<g filter="url(#filter1_f_6_79)">
<path d="M224.5 273C223.833 270.5 220.1 264.5 210.5 260.5C200.9 256.5 197.167 246.5 196.5 242C195.833 246.5 192.1 256.5 182.5 260.5C172.9 264.5 169.167 270.5 168.5 273" stroke="#F4E67C" stroke-width="2"/>
</g>
<path d="M211 299.5C203.971 296.532 196.988 283.339 196.5 280C196.012 283.339 188.529 296.532 181.5 299.5" stroke="#9C9034" stroke-width="2"/>
<circle cx="196" cy="203" r="18.5" stroke="#9C9034"/>
<circle cx="197.5" cy="290.5" r="117" stroke="#9C9034"/>
<rect x="100.707" y="285" width="134.765" height="134.765" transform="rotate(-45 100.707 285)" stroke="#9C9034"/>
<rect x="100.707" y="285" width="134.765" height="134.765" transform="rotate(-45 100.707 285)" stroke="black" stroke-opacity="0.2"/>
<path d="M291.495 285C298.657 173.877 227.832 164.019 196 189.908L196.5 189.5C164.5 163.5 93.3 173.4 100.5 285" stroke="#9C9034"/>
<path d="M100.5 285C93.3379 396.123 165.168 405.981 197 380.092L196.5 380.5C228.5 406.5 298.7 396.6 291.5 285" stroke="#9C9034"/>
<path d="M218 312.5L256 312.5L256.5 312.5L256.5 258.5H256H235" stroke="#9C9034"/>
<line x1="366.5" y1="204" x2="366.5" y2="284" stroke="#9C9034"/>
<line x1="196" y1="127.5" x2="387" y2="127.5" stroke="#9C9034"/>
<line x1="387.5" y1="128" x2="387.5" y2="442" stroke="#9C9034"/>
<line x1="388" y1="441.5" x2="198" y2="441.5" stroke="#9C9034"/>
<line x1="196" y1="204.5" x2="332" y2="204.5" stroke="#9C9034"/>
<line x1="366" y1="284.5" x2="387" y2="284.5" stroke="#9C9034"/>
<line x1="40" y1="284.5" x2="352" y2="284.5" stroke="#9C9034"/>
<path d="M232 453V227H160V453" stroke="#9C9034"/>
<g filter="url(#filter2_f_6_79)">
<path d="M40.5 284.5C40.5 244.192 54.3769 203.884 85.1307 173.131C115.884 142.377 155.692 128.5 196 128.5M196.5 442C236.808 442 277.116 426.623 307.869 395.869C338.623 365.116 354 325.808 354 285.5C354 257.612 346.639 228.724 331.917 204" stroke="#FFE100" stroke-width="3"/>
</g>
<g filter="url(#filter3_df_6_79)">
<path d="M196.48 205C205.647 208.167 225.78 221.3 232.98 248.5C235.48 265 236.98 279.5 219.98 308.5C202.98 337.5 196.48 367.5 196.48 371.5H196.5C196.5 367.5 190 337.5 173 308.5C156 279.5 157.5 265 160 248.5C167.2 221.3 187.333 208.167 196.5 205H196.48Z" stroke="#FFE837" stroke-width="3" shape-rendering="crispEdges"/>
</g>
<g filter="url(#filter4_dd_6_79)">
<path d="M98.28 83V23.4H110.68V49.16H133.88V23.4H146.28V83H133.88V59.96H110.68V83H98.28ZM156.874 83V23.4H166.394L198.394 65.56L193.274 66.76V23.4H205.674V83H196.074L164.634 40.52L169.274 39.32V83H156.874ZM226.969 83V34.2H211.849V23.4H254.249V34.2H239.369V83H226.969ZM255.989 83V73L283.109 34.2H257.589V23.4H298.789V33.4L271.749 72.2H299.589V83H255.989Z" fill="#DAB330"/>
</g>
<g filter="url(#filter5_df_6_79)">
<path d="M98.28 83V23.4H110.68V49.16H133.88V23.4H146.28V83H133.88V59.96H110.68V83H98.28ZM156.874 83V23.4H166.394L198.394 65.56L193.274 66.76V23.4H205.674V83H196.074L164.634 40.52L169.274 39.32V83H156.874ZM226.969 83V34.2H211.849V23.4H254.249V34.2H239.369V83H226.969ZM255.989 83V73L283.109 34.2H257.589V23.4H298.789V33.4L271.749 72.2H299.589V83H255.989Z" fill="#DAB330"/>
</g>
<line x1="331" y1="205" x2="367" y2="205" stroke="#CDB924" stroke-width="2"/>
<g filter="url(#filter6_f_6_79)">
<path d="M196.5 205V368" stroke="#F4E67C" stroke-width="2"/>
</g>
<g filter="url(#filter7_f_6_79)">
<path d="M211 299.5C203.971 296.532 196.988 283.339 196.5 280C196.012 283.339 188.529 296.532 181.5 299.5" stroke="#F4E67C" stroke-width="2"/>
</g>
<path d="M167.848 505V486.832H169.648V494.632L169.24 494.536C169.56 493.704 170.08 493.048 170.8 492.568C171.536 492.088 172.384 491.848 173.344 491.848C174.256 491.848 175.072 492.056 175.792 492.472C176.528 492.888 177.104 493.464 177.52 494.2C177.952 494.92 178.168 495.736 178.168 496.648V505H176.368V497.344C176.368 496.56 176.224 495.896 175.936 495.352C175.648 494.808 175.248 494.392 174.736 494.104C174.24 493.8 173.672 493.648 173.032 493.648C172.392 493.648 171.816 493.8 171.304 494.104C170.792 494.392 170.384 494.816 170.08 495.376C169.792 495.92 169.648 496.576 169.648 497.344V505H167.848ZM186.166 505.288C185.27 505.288 184.454 505.08 183.718 504.664C182.982 504.232 182.398 503.64 181.966 502.888C181.55 502.12 181.342 501.24 181.342 500.248V492.136H183.142V500.032C183.142 500.72 183.278 501.328 183.55 501.856C183.838 502.368 184.23 502.768 184.726 503.056C185.238 503.344 185.822 503.488 186.478 503.488C187.134 503.488 187.718 503.344 188.23 503.056C188.742 502.752 189.142 502.328 189.43 501.784C189.718 501.224 189.862 500.56 189.862 499.792V492.136H191.662V505H189.862V502.504L190.27 502.6C189.966 503.432 189.446 504.088 188.71 504.568C187.974 505.048 187.126 505.288 186.166 505.288ZM195.364 505V492.136H197.164V494.632L196.756 494.536C197.076 493.704 197.596 493.048 198.316 492.568C199.052 492.088 199.9 491.848 200.86 491.848C201.772 491.848 202.588 492.056 203.308 492.472C204.044 492.888 204.62 493.464 205.036 494.2C205.468 494.92 205.684 495.736 205.684 496.648V505H203.884V497.344C203.884 496.56 203.74 495.896 203.452 495.352C203.18 494.808 202.788 494.392 202.276 494.104C201.78 493.8 201.204 493.648 200.548 493.648C199.892 493.648 199.308 493.8 198.796 494.104C198.284 494.392 197.884 494.816 197.596 495.376C197.308 495.92 197.164 496.576 197.164 497.344V505H195.364ZM214.041 505.144C212.889 505.144 212.001 504.808 211.377 504.136C210.753 503.464 210.441 502.504 210.441 501.256V493.936H208.065V492.136H208.665C209.209 492.136 209.641 491.96 209.961 491.608C210.281 491.24 210.441 490.784 210.441 490.24V489.16H212.241V492.136H215.073V493.936H212.241V501.256C212.241 501.688 212.305 502.072 212.433 502.408C212.561 502.728 212.777 502.984 213.081 503.176C213.401 503.368 213.825 503.464 214.353 503.464C214.481 503.464 214.633 503.456 214.809 503.44C214.985 503.424 215.137 503.408 215.265 503.392V505C215.073 505.048 214.857 505.08 214.617 505.096C214.377 505.128 214.185 505.144 214.041 505.144ZM222.89 505.288C221.658 505.288 220.578 504.976 219.65 504.352C218.722 503.728 218.05 502.88 217.634 501.808L219.146 501.088C219.514 501.872 220.026 502.496 220.682 502.96C221.354 503.424 222.09 503.656 222.89 503.656C223.658 503.656 224.306 503.472 224.834 503.104C225.362 502.72 225.626 502.224 225.626 501.616C225.626 501.168 225.498 500.816 225.242 500.56C224.986 500.288 224.69 500.08 224.354 499.936C224.018 499.792 223.722 499.688 223.466 499.624L221.618 499.096C220.434 498.76 219.578 498.288 219.05 497.68C218.522 497.072 218.258 496.368 218.258 495.568C218.258 494.816 218.45 494.16 218.834 493.6C219.218 493.04 219.738 492.608 220.394 492.304C221.05 492 221.778 491.848 222.578 491.848C223.666 491.848 224.65 492.136 225.53 492.712C226.426 493.272 227.058 494.056 227.426 495.064L225.89 495.784C225.57 495.064 225.106 494.504 224.498 494.104C223.906 493.688 223.242 493.48 222.506 493.48C221.786 493.48 221.21 493.664 220.778 494.032C220.346 494.4 220.13 494.864 220.13 495.424C220.13 495.856 220.242 496.2 220.466 496.456C220.69 496.712 220.946 496.904 221.234 497.032C221.538 497.16 221.802 497.256 222.026 497.32L224.162 497.944C225.202 498.248 226.01 498.72 226.586 499.36C227.178 500 227.474 500.752 227.474 501.616C227.474 502.32 227.274 502.952 226.874 503.512C226.49 504.072 225.954 504.512 225.266 504.832C224.578 505.136 223.786 505.288 222.89 505.288Z" fill="#DAB330"/>
<defs>
<filter id="filter0_f_6_79" x="37.9" y="126.9" width="316.7" height="316.7" filterUnits="userSpaceOnUse" color-interpolation-filters="sRGB">
<feFlood flood-opacity="0" result="BackgroundImageFix"/>
<feBlend mode="normal" in="SourceGraphic" in2="BackgroundImageFix" result="shape"/>
<feGaussianBlur stdDeviation="0.55" result="effect1_foregroundBlur_6_79"/>
</filter>
<filter id="filter1_f_6_79" x="163.534" y="237.853" width="65.9325" height="39.4042" filterUnits="userSpaceOnUse" color-interpolation-filters="sRGB">
<feFlood flood-opacity="0" result="BackgroundImageFix"/>
<feBlend mode="normal" in="SourceGraphic" in2="BackgroundImageFix" result="shape"/>
<feGaussianBlur stdDeviation="2" result="effect1_foregroundBlur_6_79"/>
</filter>
<filter id="filter2_f_6_79" x="33" y="121" width="328.5" height="328.5" filterUnits="userSpaceOnUse" color-interpolation-filters="sRGB">
<feFlood flood-opacity="0" result="BackgroundImageFix"/>
<feBlend mode="normal" in="SourceGraphic" in2="BackgroundImageFix" result="shape"/>
<feGaussianBlur stdDeviation="3" result="effect1_foregroundBlur_6_79"/>
</filter>
<filter id="filter3_df_6_79" x="150.98" y="197.5" width="91.0195" height="183.5" filterUnits="userSpaceOnUse" color-interpolation-filters="sRGB">
<feFlood flood-opacity="0" result="BackgroundImageFix"/>
<feColorMatrix in="SourceAlpha" type="matrix" values="0 0 0 0 0 0 0 0 0 0 0 0 0 0 0 0 0 0 127 0" result="hardAlpha"/>
<feOffset dy="4"/>
<feGaussianBlur stdDeviation="2"/>
<feComposite in2="hardAlpha" operator="out"/>
<feColorMatrix type="matrix" values="0 0 0 0 0 0 0 0 0 0 0 0 0 0 0 0 0 0 0.36 0"/>
<feBlend mode="normal" in2="BackgroundImageFix" result="effect1_dropShadow_6_79"/>
<feBlend mode="normal" in="SourceGraphic" in2="effect1_dropShadow_6_79" result="shape"/>
<feGaussianBlur stdDeviation="3" result="effect2_foregroundBlur_6_79"/>
</filter>
<filter id="filter4_dd_6_79" x="94.28" y="23.4" width="209.309" height="67.6" filterUnits="userSpaceOnUse" color-interpolation-filters="sRGB">
<feFlood flood-opacity="0" result="BackgroundImageFix"/>
<feColorMatrix in="SourceAlpha" type="matrix" values="0 0 0 0 0 0 0 0 0 0 0 0 0 0 0 0 0 0 127 0" result="hardAlpha"/>
<feOffset dy="4"/>
<feGaussianBlur stdDeviation="2"/>
<feComposite in2="hardAlpha" operator="out"/>
<feColorMatrix type="matrix" values="0 0 0 0 0 0 0 0 0 0 0 0 0 0 0 0 0 0 0.25 0"/>
<feBlend mode="normal" in2="BackgroundImageFix" result="effect1_dropShadow_6_79"/>
<feColorMatrix in="SourceAlpha" type="matrix" values="0 0 0 0 0 0 0 0 0 0 0 0 0 0 0 0 0 0 127 0" result="hardAlpha"/>
<feOffset dy="4"/>
<feGaussianBlur stdDeviation="2"/>
<feComposite in2="hardAlpha" operator="out"/>
<feColorMatrix type="matrix" values="0 0 0 0 0 0 0 0 0 0 0 0 0 0 0 0 0 0 0.25 0"/>
<feBlend mode="normal" in2="effect1_dropShadow_6_79" result="effect2_dropShadow_6_79"/>
<feBlend mode="normal" in="SourceGraphic" in2="effect2_dropShadow_6_79" result="shape"/>
</filter>
<filter id="filter5_df_6_79" x="94.28" y="19.4" width="209.309" height="71.6" filterUnits="userSpaceOnUse" color-interpolation-filters="sRGB">
<feFlood flood-opacity="0" result="BackgroundImageFix"/>
<feColorMatrix in="SourceAlpha" type="matrix" values="0 0 0 0 0 0 0 0 0 0 0 0 0 0 0 0 0 0 127 0" result="hardAlpha"/>
<feOffset dy="4"/>
<feGaussianBlur stdDeviation="2"/>
<feComposite in2="hardAlpha" operator="out"/>
<feColorMatrix type="matrix" values="0 0 0 0 0 0 0 0 0 0 0 0 0 0 0 0 0 0 0.25 0"/>
<feBlend mode="normal" in2="BackgroundImageFix" result="effect1_dropShadow_6_79"/>
<feBlend mode="normal" in="SourceGraphic" in2="effect1_dropShadow_6_79" result="shape"/>
<feGaussianBlur stdDeviation="2" result="effect2_foregroundBlur_6_79"/>
</filter>
<filter id="filter6_f_6_79" x="191.5" y="201" width="10" height="171" filterUnits="userSpaceOnUse" color-interpolation-filters="sRGB">
<feFlood flood-opacity="0" result="BackgroundImageFix"/>
<feBlend mode="normal" in="SourceGraphic" in2="BackgroundImageFix" result="shape"/>
<feGaussianBlur stdDeviation="2" result="effect1_foregroundBlur_6_79"/>
</filter>
<filter id="filter7_f_6_79" x="177.111" y="275.855" width="38.278" height="28.5659" filterUnits="userSpaceOnUse" color-interpolation-filters="sRGB">
<feFlood flood-opacity="0" result="BackgroundImageFix"/>
<feBlend mode="normal" in="SourceGraphic" in2="BackgroundImageFix" result="shape"/>
<feGaussianBlur stdDeviation="2" result="effect1_foregroundBlur_6_79"/>
</filter>
</defs>
</svg>
